<svg xmlns="http://www.w3.org/2000/svg" viewBox="0 0 1024 1024">
  <rect x="64" y="64" width="896" height="896" rx="210" fill="#282725"/>
  <g fill="#EEEAE1">
    <rect x="230" y="230" width="210" height="360" rx="105"/>
    <path d="M148 486a27 27 0 0 1 54 0v62c0 115 48 192 133 192s133-77 133-192v-62a27 27 0 0 1 54 0v62c0 139-63 226-160 244v61h63a27 27 0 0 1 0 54H245a27 27 0 0 1 0-54h63v-61c-97-18-160-105-160-244v-62Z"/>
    <rect x="586" y="482" width="52" height="164" rx="26"/>
    <rect x="698" y="360" width="52" height="408" rx="26"/>
    <rect x="810" y="510" width="52" height="110" rx="26"/>
  </g>
</svg>
